<?xml version="1.0" encoding="utf-8"?>
<!-- Generator: Adobe Illustrator 28.0.0, SVG Export Plug-In . SVG Version: 6.00 Build 0)  -->
<svg version="1.1" id="Слой_1" xmlns="http://www.w3.org/2000/svg" xmlns:xlink="http://www.w3.org/1999/xlink" x="0px" y="0px"
	 viewBox="0 0 1000 1000" style="enable-background:new 0 0 1000 1000;" xml:space="preserve">
<style type="text/css">
	.st0{fill:#0866FF;}
	.st1{fill:#FFFFFF;}
</style>
<g id="Logo">
	<path id="Initiator" class="st0" d="M1000.5,500.4c0-276.2-223.8-500-500-500s-500,223.8-500,500c0,234.4,161.4,431.2,379.2,485.2
		V653.2H276.5V500.4h103.2v-65.8c0-170.2,77-249,244-249c31.6,0,86.4,6.2,108.6,12.4v138.4c-11.8-1.2-32.2-1.8-57.8-1.8
		c-82,0-113.6,31-113.6,111.8v54h163.4l-28,152.8H561.1v343.6C808.7,966.8,1000.5,756,1000.5,500.4z"/>
	<path id="F" class="st1" d="M696.3,653.2l28-152.8H560.9v-54c0-80.8,31.6-111.8,113.6-111.8c25.4,0,46,0.6,57.8,1.8V197.8
		c-22.4-6.2-77-12.4-108.6-12.4c-167,0-244,78.8-244,249v66H276.5v152.8h103.2v332.4c38.6,9.6,79.2,14.8,120.8,14.8
		c20.6,0,40.8-1.2,60.6-3.6V653.2H696.3z"/>
</g>
</svg>
