<?xml version="1.0" encoding="utf-8"?>
<!-- Generator: Adobe Illustrator 19.0.0, SVG Export Plug-In . SVG Version: 6.00 Build 0)  -->
<svg version="1.1" id="layer" xmlns="http://www.w3.org/2000/svg" xmlns:xlink="http://www.w3.org/1999/xlink" x="0px" y="0px"
	 viewBox="-153 -46 652 652" style="enable-background:new -153 -46 652 652;" xml:space="preserve">
<style type="text/css">
	.st0{fill:#E3032E;}
	.st1{fill:#FFFFFF;}
</style>
<path class="st0" d="M18,25.5h297.4v297.1H18V25.5z"/>
<path class="st1" d="M160.9,129.2c0,18.1-15.4,38.2-41.1,38.2H85v-20.9h29.6c14.9,0,22.5-9.4,22.5-23.3V93h23.8V129.2z M172.4,129.2
	c0,18.1,15.4,38.2,41.1,38.2h34.8v-20.9h-29.6c-14.9,0-22.5-9.4-22.5-23.3V93h-23.8V129.2z M248.1,178.9h-32.5
	c-33,0-43.2,23.6-43.2,41.6v34.8h31.2c26.2,0,44.5-22,44.5-46.3V178.9 M207.3,235.2h-14.9v-16.8c0-8.6,5-19.9,20.7-19.9h15.7v14.4
	C228.7,224.7,219.8,235.2,207.3,235.2 M85,209c0,24.3,18.6,46.3,44.5,46.3h31.2v-35.1c0-17.8-10.2-41.6-43.2-41.6H85L85,209
	 M104.4,213.2v-14.4h15.7c15.7,0,20.7,11.3,20.7,19.9v16.8h-14.9C113.3,235.2,104.4,224.7,104.4,213.2"/>
<path class="st0" d="M129,438.6H91.3v11.5l8.6,1v59.9l-8.6,1v11.5h30.9v-11.5l-8.6-1V492H129c25.7,0,29.6-16.8,29.6-26.7
	C158.3,455.3,154.6,438.6,129,438.6 M129,478.9h-15.7v-27.2H129c9.7,0,14.7,4.7,14.7,13.6C143.7,471.6,141.3,478.9,129,478.9
	 M310.4,512.9c-4.2,0-7.6-2.1-9.9-6.3l-8.6-14.4c-0.8-1.3-1.6-2.4-2.1-3.1l-1.3-1.6l1.8-0.5c10.5-3.1,14.9-10.5,14.9-23.3
	c0-17.5-8.6-25.1-29.1-25.1h-37.7v11.5l8.6,1v60.2l-8.6,1v11.5h30.9v-11.5l-8.6-1v-22.5h8.4c3.9,0,5.8,1.8,7.6,5l9.7,16.2
	c6.8,11.3,13.1,15.4,23.8,15.4c2.6,0,6-0.5,7.9-0.8v-12.6C315.4,512.7,313.3,512.9,310.4,512.9 M277.7,476h-17v-24.3h17
	c11.5,0,13.1,5.8,13.1,12C290.8,470.3,289.2,476,277.7,476 M68,501.9l-1,8.6H40.2v-24.3h28v-13.1h-28v-21.5h26.7l1,8.6h11.3v-21.7
	H18v11.5l8.6,1v59.9l-8.6,1v11.5h61.3v-21.7H68z M215.1,501.9l-1,8.6h-26.7v-24.3h28.3v-13.1h-28.3v-21.5h26.7l1,8.6h11.5v-21.7
	h-61.3v11.5l8.4,1v59.9l-8.4,1v11.5h61.3v-21.7H215.1z M290.2,427.1c10.5,0,19.6-4.5,24.3-11.5c4.2-6.5,5.5-15.7,3.4-23.3
	c-1.6-5-5.5-11.8-14.9-15.2c-3.7-1.3-15.7-4.2-17.5-4.7c-6-1.6-9.9-4.7-11.5-8.6c-1-3.1-0.5-6.5,1.6-9.4c1.8-2.9,6.5-4.7,11.8-4.7
	c8.6,0,17.3,5,17.5,16.2h10.5v-26.2h-10.2l-1.3,4.7c0,0-5-7.1-18.6-7.1c-8.6,0-16,3.1-19.9,8.9c-6.8,9.7-6,20.4-2.9,26.7
	c2.6,5.5,8.1,9.7,16,12.3c3.9,1.3,17.8,5,21.5,6.8c2.6,1.3,4.5,3.9,5.2,7.1c0.8,3.7-0.3,7.6-2.9,10.5c-2.4,2.9-7.1,4.7-12,4.7
	s-9.7-1.6-13.1-4.5c-3.9-3.1-6.3-7.9-6.3-13.4h-11V425h11.5c0,0,0.8-5.8,0.8-6C271.9,418.7,278.2,427.1,290.2,427.1 M62.8,339.6
	v11.5l8.6,1v22H40.2v-22l8.4-1v-11.5H18v11.5l8.6,1v59.9l-8.6,1v11.5h30.6v-11.5l-8.4-1v-24.9h31.2v24.9l-8.6,1v11.5h30.6v-11.5
	l-8.4-1v-59.9l8.4-1v-11.5H62.8z M250.2,424.7v-11.5l-8.4-1l-0.3-0.3l-27.7-32.5l28-27.2l8.4-1v-11.5h-30.9v11.5l5.8,0.8l-27.2,26.4
	v-26.2l8.6-1v-11.5h-30.6v11.5l8.6,1v59.9l-8.6,1v11.5h30.6v-11.5l-8.6-1v-17l6.3-6.3l19.9,23.6l-7.1,0.8v11.5H250.2z M153.6,403
	l-1,8.6h-26.7V387h28.3v-12.8h-28.3v-21.5h26.7l1,8.4h11.5v-21.5h-61.5v11.5l8.6,0.8v60.2l-8.6,1v11.3h61.5V403L153.6,403z"/>
</svg>
