<?xml version="1.0" standalone="no"?>
<!DOCTYPE svg PUBLIC "-//W3C//DTD SVG 20010904//EN"
 "http://www.w3.org/TR/2001/REC-SVG-20010904/DTD/svg10.dtd">
<svg version="1.0" xmlns="http://www.w3.org/2000/svg"
 width="144.000000pt" height="144.000000pt" viewBox="0 0 144.000000 144.000000"
 preserveAspectRatio="xMidYMid meet">

<g transform="translate(0.000000,144.000000) scale(0.100000,-0.100000)"
fill="#000000" stroke="none">
<path d="M606 1139 c-113 -27 -225 -121 -279 -237 -55 -117 -49 -290 13 -391
15 -23 25 -30 31 -24 7 7 2 27 -14 60 -75 147 -48 328 69 453 56 59 147 108
222 117 34 4 52 10 52 19 0 16 -34 17 -94 3z"/>
<path d="M949 958 c-84 -49 -145 -90 -147 -100 -2 -12 8 -22 33 -32 l36 -16
-33 -40 c-31 -39 -32 -43 -17 -68 23 -42 67 -42 101 -1 l28 33 29 -34 c26 -31
31 -33 44 -20 15 15 94 262 104 324 5 31 3 36 -14 36 -10 0 -84 -37 -164 -82z
m111 -95 c-23 -76 -46 -142 -50 -146 -4 -5 -17 9 -30 30 l-22 38 -44 -50 c-40
-47 -44 -49 -60 -33 -19 18 -18 20 36 90 l21 28 -35 17 c-20 9 -36 19 -36 22
0 8 253 151 258 146 3 -2 -15 -66 -38 -142z"/>
<path d="M429 901 c-56 -57 -23 -141 56 -141 87 0 120 116 44 155 -42 22 -67
18 -100 -14z m109 -34 c12 -24 11 -31 -2 -52 -21 -32 -52 -40 -81 -21 -29 19
-34 66 -9 91 26 26 76 16 92 -18z"/>
<path d="M1130 758 c-23 -160 -58 -245 -132 -318 -112 -110 -262 -147 -408
-100 -68 22 -89 22 -76 1 15 -24 113 -46 206 -46 89 0 100 2 171 36 94 45 171
120 210 203 40 86 64 226 39 226 -5 0 -10 -1 -10 -2z"/>
<path d="M425 665 c-37 -36 -30 -98 14 -132 27 -21 79 -15 106 12 54 53 16
145 -60 145 -25 0 -44 -8 -60 -25z m111 -31 c13 -20 14 -27 2 -51 -10 -22 -21
-29 -49 -31 -44 -4 -62 15 -57 60 5 57 72 71 104 22z"/>
<path d="M812 577 c-46 -49 -12 -127 56 -127 43 0 72 30 72 75 0 69 -81 102
-128 52z m88 -17 c11 -11 20 -27 20 -35 0 -19 -35 -55 -54 -55 -41 0 -59 59
-29 92 21 23 38 23 63 -2z"/>
<path d="M388 445 c-15 -33 -6 -40 29 -20 23 13 24 15 5 9 -21 -5 -23 -3 -17
15 9 29 -3 26 -17 -4z"/>
<path d="M469 384 c-19 -40 -12 -44 15 -8 10 14 14 29 10 34 -5 4 -16 -7 -25
-26z"/>
</g>
</svg>
