<?xml version="1.0" standalone="no"?>
<!DOCTYPE svg PUBLIC "-//W3C//DTD SVG 20010904//EN"
 "http://www.w3.org/TR/2001/REC-SVG-20010904/DTD/svg10.dtd">
<svg version="1.0" xmlns="http://www.w3.org/2000/svg"
 width="144.000000pt" height="144.000000pt" viewBox="0 0 144.000000 144.000000"
 preserveAspectRatio="xMidYMid meet">

<g transform="translate(0.000000,144.000000) scale(0.100000,-0.100000)"
fill="#000000" stroke="none">
<path d="M485 797 c10 -44 27 -76 69 -126 42 -50 45 -60 48 -165 3 -65 6 -81
22 -90 10 -6 29 -21 42 -33 35 -34 97 -32 134 6 16 16 36 31 45 35 13 4 15 22
13 100 -3 93 -3 94 30 132 40 48 67 99 77 141 10 48 -19 34 -34 -16 -6 -21
-30 -60 -53 -86 -30 -34 -44 -59 -48 -89 l-5 -41 -96 -3 -96 -3 -6 39 c-4 25
-24 60 -56 100 -27 33 -52 74 -56 91 -3 16 -13 32 -21 35 -13 5 -14 0 -9 -27z
m335 -272 c0 -12 -13 -15 -57 -15 -32 0 -75 -3 -95 -6 -31 -5 -38 -4 -38 9 0
16 26 21 143 25 36 2 47 -2 47 -13z m3 -60 c-3 -12 -193 -19 -193 -7 0 5 3 12
7 16 11 11 188 2 186 -9z m-38 -56 c-12 -19 -54 -29 -80 -19 -42 16 -28 30 31
30 36 0 53 -4 49 -11z"/>
</g>
</svg>
