<?xml version="1.0" standalone="no"?>
<!DOCTYPE svg PUBLIC "-//W3C//DTD SVG 20010904//EN"
 "http://www.w3.org/TR/2001/REC-SVG-20010904/DTD/svg10.dtd">
<svg version="1.0" xmlns="http://www.w3.org/2000/svg"
 width="144.000000pt" height="144.000000pt" viewBox="0 0 144.000000 144.000000"
 preserveAspectRatio="xMidYMid meet">

<g transform="translate(0.000000,144.000000) scale(0.100000,-0.100000)"
fill="#000000" stroke="none">
<path d="M609 1116 c-102 -27 -190 -103 -238 -205 -22 -48 -26 -69 -26 -151 0
-87 3 -101 32 -160 40 -81 97 -137 192 -189 71 -40 77 -41 167 -41 51 0 95 4
98 9 3 5 32 21 63 37 74 36 141 104 179 179 26 54 29 69 29 160 -1 82 -5 109
-23 149 -17 36 -26 46 -34 38 -8 -8 -6 -22 5 -50 24 -60 30 -132 18 -194 -20
-93 -24 -95 -113 -49 -61 31 -79 37 -88 26 -8 -10 7 -22 70 -54 90 -47 91 -51
23 -111 -44 -39 -122 -76 -180 -85 l-43 -7 0 91 c0 76 -2 89 -15 85 -12 -5
-15 -25 -15 -90 0 -66 -3 -84 -14 -84 -34 0 -137 40 -180 69 -52 36 -88 82
-69 88 18 6 3 33 -19 33 -44 0 -71 149 -44 243 9 31 18 57 20 57 2 0 30 -16
62 -35 62 -37 80 -42 86 -23 2 6 -16 22 -41 35 -25 13 -57 32 -70 42 l-24 18
47 50 c51 56 140 102 203 106 l38 2 -1 -72 c0 -81 -15 -105 -86 -146 -35 -19
-51 -47 -28 -47 20 0 119 69 130 91 7 12 15 57 18 101 l5 79 41 -6 c60 -10
138 -47 184 -90 43 -38 79 -41 45 -3 -86 96 -264 142 -404 104z"/>
</g>
</svg>
