<?xml version="1.0" standalone="no"?>
<!DOCTYPE svg PUBLIC "-//W3C//DTD SVG 20010904//EN"
 "http://www.w3.org/TR/2001/REC-SVG-20010904/DTD/svg10.dtd">
<svg version="1.0" xmlns="http://www.w3.org/2000/svg"
 width="144.000000pt" height="144.000000pt" viewBox="0 0 144.000000 144.000000"
 preserveAspectRatio="xMidYMid meet">

<g transform="translate(0.000000,144.000000) scale(0.100000,-0.100000)"
fill="#000000" stroke="none">
<path d="M787 1225 c-47 -16 -87 -52 -80 -71 4 -11 13 -7 39 15 38 34 94 48
133 35 14 -5 36 -24 48 -43 l23 -34 0 27 c0 33 -39 71 -81 80 -39 8 -36 8 -82
-9z"/>
<path d="M926 1056 c-11 -44 -112 -143 -182 -177 -62 -31 -64 -31 -90 -14 -32
21 -43 12 -19 -15 25 -28 62 -25 133 10 98 50 206 180 174 212 -6 6 -12 0 -16
-16z"/>
<path d="M345 855 c-118 -43 -152 -183 -64 -267 l39 -38 -21 -21 c-31 -31 -47
-78 -55 -161 l-7 -75 47 -7 c40 -6 46 -10 46 -32 0 -13 5 -24 10 -24 12 0 14
177 1 184 -9 6 -21 -40 -21 -80 0 -19 -5 -24 -25 -24 -23 0 -25 3 -25 53 0 77
16 121 55 156 43 37 43 46 6 66 -73 37 -95 135 -44 196 49 58 127 75 193 41
102 -51 108 -201 10 -242 -39 -16 -38 -26 6 -40 22 -8 67 -42 112 -86 41 -41
79 -71 85 -67 6 3 -30 45 -80 94 l-90 87 31 31 c28 28 31 37 31 94 0 49 -5 69
-23 95 -45 63 -145 94 -217 67z"/>
<path d="M976 855 c-120 -43 -163 -180 -81 -262 32 -32 32 -34 13 -44 -22 -12
-168 -154 -168 -163 0 -21 35 4 100 69 50 50 88 79 113 87 43 13 47 25 12 34
-14 3 -39 22 -56 42 -28 31 -31 41 -27 82 9 90 78 146 168 138 78 -8 140 -69
140 -139 0 -38 -31 -87 -72 -114 l-41 -27 36 -32 c47 -41 55 -61 63 -145 l7
-71 -32 0 c-31 0 -31 1 -31 50 0 28 -4 50 -10 50 -6 0 -10 -37 -10 -90 0 -53
4 -90 10 -90 6 0 10 11 10 24 0 20 6 25 40 31 l40 7 0 61 c0 79 -14 128 -47
167 l-25 31 35 34 c69 67 69 162 2 230 -52 52 -117 66 -189 40z"/>
<path d="M772 758 c-26 -27 -42 -34 -87 -38 -58 -5 -75 -23 -28 -28 42 -6 96
14 127 47 39 41 28 59 -12 19z"/>
<path d="M520 330 c0 -60 4 -100 10 -100 6 0 10 33 10 80 0 73 9 97 25 70 10
-17 85 -51 103 -48 11 2 -3 15 -38 34 -31 18 -62 39 -69 48 -7 9 -20 16 -27
16 -11 0 -14 -22 -14 -100z"/>
<path d="M880 409 c-14 -12 -46 -32 -73 -45 -26 -14 -45 -29 -42 -34 6 -10 67
13 108 42 l27 19 0 -80 c0 -66 3 -81 15 -81 13 0 15 15 13 97 -2 53 -7 98 -13
99 -5 2 -21 -6 -35 -17z"/>
</g>
</svg>
