<?xml version="1.0" standalone="no"?>
<!DOCTYPE svg PUBLIC "-//W3C//DTD SVG 20010904//EN"
 "http://www.w3.org/TR/2001/REC-SVG-20010904/DTD/svg10.dtd">
<svg version="1.0" xmlns="http://www.w3.org/2000/svg"
 width="144.000000pt" height="144.000000pt" viewBox="0 0 144.000000 144.000000"
 preserveAspectRatio="xMidYMid meet">

<g transform="translate(0.000000,144.000000) scale(0.100000,-0.100000)"
fill="#000000" stroke="none">
<path d="M590 1110 c-80 -41 -157 -53 -298 -46 -132 6 -133 6 -158 -19 -21
-21 -24 -33 -24 -104 0 -264 132 -535 302 -620 179 -90 344 18 389 253 10 55
12 199 3 234 -14 50 -22 15 -26 -110 -5 -149 -24 -215 -82 -291 -94 -123 -211
-126 -338 -9 -34 31 -77 81 -95 110 -68 106 -122 297 -123 433 0 97 8 105 98
99 103 -7 202 -3 252 9 64 17 150 52 150 62 0 17 -16 16 -50 -1z"/>
<path d="M665 1079 c-17 -11 -23 -19 -14 -19 17 0 57 26 49 33 -3 2 -18 -4
-35 -14z"/>
<path d="M815 900 c18 -60 79 -80 126 -41 30 24 21 35 -16 21 -33 -13 -61 -5
-94 24 l-23 21 7 -25z"/>
<path d="M1360 868 c0 -13 -9 -61 -20 -108 -70 -294 -220 -460 -416 -460 -59
0 -77 4 -107 24 -41 28 -77 41 -77 28 0 -15 33 -40 85 -63 39 -17 61 -21 119
-17 191 13 347 179 414 443 33 126 38 175 18 175 -10 0 -16 -8 -16 -22z"/>
<path d="M538 874 c-5 -4 -8 -13 -8 -21 0 -10 21 -13 84 -13 91 0 122 14 53
23 -23 3 -60 9 -82 12 -22 4 -43 3 -47 -1z"/>
<path d="M320 851 c-42 -13 -70 -35 -70 -53 0 -22 -5 -23 55 7 34 18 58 24 77
19 21 -4 28 -2 28 9 0 25 -39 33 -90 18z"/>
<path d="M1100 832 c0 -45 80 -83 133 -63 39 15 33 26 -14 28 -24 0 -55 11
-80 27 -35 24 -39 24 -39 8z"/>
<path d="M612 568 c-47 -29 -137 -35 -206 -13 -31 10 -59 16 -61 13 -3 -2 9
-25 26 -51 31 -47 94 -87 138 -87 59 0 129 63 146 133 8 32 2 33 -43 5z m-12
-58 c-13 -25 -61 -50 -96 -50 -26 0 -94 35 -94 48 0 4 26 6 57 4 46 -2 107 5
141 17 1 1 -2 -8 -8 -19z"/>
<path d="M864 546 c-59 -26 -51 -37 19 -30 74 8 125 -11 160 -58 19 -26 47
-38 47 -20 0 27 -47 76 -93 97 -59 28 -88 30 -133 11z"/>
</g>
</svg>
