<?xml version="1.0" standalone="no"?>
<!DOCTYPE svg PUBLIC "-//W3C//DTD SVG 20010904//EN"
 "http://www.w3.org/TR/2001/REC-SVG-20010904/DTD/svg10.dtd">
<svg version="1.0" xmlns="http://www.w3.org/2000/svg"
 width="144.000000pt" height="144.000000pt" viewBox="0 0 144.000000 144.000000"
 preserveAspectRatio="xMidYMid meet">

<g transform="translate(0.000000,144.000000) scale(0.100000,-0.100000)"
fill="#000000" stroke="none">
<path d="M825 1096 c-115 -50 -110 -188 9 -274 47 -34 153 -82 181 -82 21 0
19 19 -2 26 -88 26 -195 94 -223 139 -22 36 -26 102 -7 125 55 70 164 64 203
-11 42 -82 -40 -168 -104 -109 -24 23 -29 59 -10 78 9 9 7 12 -10 12 -28 0
-45 -40 -32 -74 25 -66 108 -86 160 -38 65 57 44 156 -40 200 -50 25 -81 27
-125 8z"/>
<path d="M630 729 c-121 -79 -155 -108 -125 -109 6 0 66 36 134 80 l124 81 41
-48 c79 -93 103 -116 115 -112 11 4 -84 127 -143 185 -8 9 -45 -10 -146 -77z"/>
<path d="M298 578 c-48 -20 -62 -38 -33 -38 9 0 30 7 47 16 35 18 70 15 141
-12 46 -18 48 -18 95 0 60 24 114 24 175 0 46 -18 48 -18 95 0 74 29 114 31
160 7 48 -25 108 -27 159 -6 19 8 44 15 54 15 11 0 19 7 19 15 0 19 -1 19 -81
-7 l-68 -22 -68 27 c-81 32 -95 33 -152 7 -55 -26 -83 -25 -149 2 l-53 22 -62
-22 c-76 -27 -93 -27 -148 -2 -55 25 -72 24 -131 -2z"/>
<path d="M293 460 c-24 -10 -43 -24 -43 -30 0 -14 11 -13 56 6 41 17 74 15
147 -11 46 -17 49 -17 107 5 64 24 86 23 163 -6 46 -18 48 -18 95 0 73 29 111
30 170 7 29 -12 62 -21 74 -21 30 0 158 42 158 52 0 13 -37 9 -77 -7 -48 -20
-109 -18 -162 5 -55 25 -92 25 -143 -1 -46 -24 -86 -22 -160 7 -47 18 -49 18
-95 0 -75 -29 -106 -30 -151 -7 -51 26 -85 26 -139 1z"/>
</g>
</svg>
